<?xml version="1.0" encoding="UTF-8" standalone="no"?>
<!-- Created with Inkscape (http://www.inkscape.org/) -->

<svg
   xmlns:dc="http://purl.org/dc/elements/1.1/"
   xmlns:cc="http://creativecommons.org/ns#"
   xmlns:rdf="http://www.w3.org/1999/02/22-rdf-syntax-ns#"
   xmlns:svg="http://www.w3.org/2000/svg"
   xmlns="http://www.w3.org/2000/svg"
   xmlns:xlink="http://www.w3.org/1999/xlink"
   xmlns:sodipodi="http://sodipodi.sourceforge.net/DTD/sodipodi-0.dtd"
   xmlns:inkscape="http://www.inkscape.org/namespaces/inkscape"
   width="210mm"
   height="297mm"
   viewBox="0 0 210 297"
   version="1.1"
   id="svg8"
   inkscape:version="0.92.4 (5da689c313, 2019-01-14)"
   sodipodi:docname="boi.svg">
  <defs
     id="defs2">
    <linearGradient
       id="linearGradient3778"
       inkscape:collect="always">
      <stop
         id="stop3774"
         offset="0"
         style="stop-color:#d5fff6;stop-opacity:1" />
      <stop
         id="stop3776"
         offset="1"
         style="stop-color:#ffd5d5;stop-opacity:1" />
    </linearGradient>
    <linearGradient
       inkscape:collect="always"
       id="linearGradient3765">
      <stop
         style="stop-color:#37c8ab;stop-opacity:1"
         offset="0"
         id="stop3761" />
      <stop
         style="stop-color:#5fd35f;stop-opacity:1"
         offset="1"
         id="stop3763" />
    </linearGradient>
    <linearGradient
       inkscape:collect="always"
       id="linearGradient3755">
      <stop
         style="stop-color:#e9afaf;stop-opacity:1"
         offset="0"
         id="stop3751" />
      <stop
         style="stop-color:#ff6600;stop-opacity:1"
         offset="1"
         id="stop3753" />
    </linearGradient>
    <inkscape:perspective
       sodipodi:type="inkscape:persp3d"
       inkscape:vp_x="0 : 148.5 : 1"
       inkscape:vp_y="0 : 1000 : 0"
       inkscape:vp_z="210 : 148.5 : 1"
       inkscape:persp3d-origin="105 : 99 : 1"
       id="perspective3731" />
    <linearGradient
       inkscape:collect="always"
       xlink:href="#linearGradient3755"
       id="linearGradient3757"
       x1="51.31575"
       y1="92.004272"
       x2="80.448128"
       y2="114.72218"
       gradientUnits="userSpaceOnUse" />
    <linearGradient
       inkscape:collect="always"
       xlink:href="#linearGradient3765"
       id="linearGradient3767"
       x1="-214.35016"
       y1="364.88647"
       x2="339.69955"
       y2="-7.419992"
       gradientUnits="userSpaceOnUse" />
    <linearGradient
       inkscape:collect="always"
       xlink:href="#linearGradient3778"
       id="linearGradient3772"
       x1="-44.63401"
       y1="-18.645313"
       x2="263.2605"
       y2="361.67923"
       gradientUnits="userSpaceOnUse" />
  </defs>
  <sodipodi:namedview
     id="base"
     pagecolor="#ffffff"
     bordercolor="#666666"
     borderopacity="1.0"
     inkscape:pageopacity="0.0"
     inkscape:pageshadow="2"
     inkscape:zoom="0.98994949"
     inkscape:cx="188.65691"
     inkscape:cy="508.1558"
     inkscape:document-units="mm"
     inkscape:current-layer="layer2"
     showgrid="false"
     inkscape:window-width="3840"
     inkscape:window-height="2025"
     inkscape:window-x="-14"
     inkscape:window-y="-14"
     inkscape:window-maximized="1" />
  <metadata
     id="metadata5">
    <rdf:RDF>
      <cc:Work
         rdf:about="">
        <dc:format>image/svg+xml</dc:format>
        <dc:type
           rdf:resource="http://purl.org/dc/dcmitype/StillImage" />
        <dc:title></dc:title>
      </cc:Work>
    </rdf:RDF>
  </metadata>
  <g
     inkscape:groupmode="layer"
     id="layer2"
     inkscape:label="Layer 2">
    <rect
       style="fill:url(#linearGradient3772);stroke-width:0.26458332;fill-opacity:1"
       id="rect3770"
       width="273.41675"
       height="347.71765"
       x="-44.63401"
       y="-18.645313" />
  </g>
  <g
     inkscape:label="Layer 1"
     inkscape:groupmode="layer"
     id="layer1">
    <path
       sodipodi:type="spiral"
       style="fill:url(#linearGradient3767);fill-rule:evenodd;stroke:#000000;stroke-width:0.26458332;fill-opacity:1"
       id="path3713"
       sodipodi:cx="68.035713"
       sodipodi:cy="151.1012"
       sodipodi:expansion="1.09"
       sodipodi:revolution="77.510002"
       sodipodi:radius="606.85236"
       sodipodi:argument="-17.326344"
       sodipodi:t0="0.25"
       d="M -29.627867,59.472889 C 20.208601,5.3916237 106.99108,2.3252573 160.95331,52.063409 c 54.83081,50.538741 57.9362,138.534431 7.49598,193.246151 -51.24183,55.5812 -140.452103,58.72566 -195.914164,7.58255 C -83.797312,200.94641 -86.980873,110.52018 -35.134085,54.306937 17.516287,-2.7775628 109.15983,-6.0002687 166.12508,46.550992 223.96246,99.906808 227.22435,192.769 173.96783,250.48707 119.9058,309.07815 25.823635,312.37926 -32.648078,258.41672 -91.993645,203.64771 -95.334017,108.34426 -40.664685,49.118108 14.812051,-10.982747 111.33808,-14.362417 171.31947,41.014463 232.17639,97.199673 235.5954,194.94956 179.51023,255.68697 122.6158,317.30075 23.640784,320.75913 -37.853417,263.96492 -100.22482,206.36055 -103.7226,106.15915 -46.218626,43.907382 12.096402,-19.222399 113.52543,-22.759633 176.53553,35.454838 240.42444,94.481245 244.00116,197.13913 185.07548,260.9083 125.33698,325.5571 21.449019,329.17333 -43.079978,269.53573 -108.48939,209.08445 -112.14518,103.96521 -51.794957,38.675649 9.3698063,-27.495118 115.72152,-31.190494 181.77238,29.873049 248.70522,91.751981 252.44022,199.33735 190.66267,266.15023 128.06889,333.84587 19.248693,337.62052 -48.326924,275.12828 -116.78606,211.81897 -120.60041,101.7628 -57.392804,33.42373 6.632692,-35.79962 117.926,-39.653697 187.02922,24.269952 257.01748,89.0123 260.91132,201.54388 196.27097,271.41195 130.81111,342.16581 17.04013,346.09944 -53.593483,280.74173 -125.11362,214.56372 -129.08708,99.552221 -63.011361,28.15238 3.8854527,-44.13472 120.13857,-48.148035 192.30532,18.646335 265.36005,86.262587 269.41326,203.75843 201.8996,276.69275 133.56328,350.51579 14.82363,354.60892 -58.878945,286.37533 -133.47094,217.31831 -137.60403,97.33378 -68.649884,22.862298 1.1284526,-52.499321 122.35894,-56.672396 197.59998,13.00293 273.73187,83.503201 277.94496,205.9807 207.54784,281.99196 136.32503,358.89476 12.59947,363.1479 -64.182649,292.02837 -141.857,220.08241 -146.15023,95.107747 -74.307684,17.554131 -1.6379704,-60.892408 124.58683,-65.225748 202.91257,7.3404139 282.13193,80.734472 286.50541,208.21043 213.21504,287.30894 139.09604,367.30173 10.367909,371.71538 -69.503982,297.7002 -150.27083,222.85569 -154.72469,92.874373 -79.984117,12.228482 -4.4135024,-69.313035 126.822,-73.807129 208.24251,1.6594173 290.5593,77.956709 295.09366,210.44738 218.90056,292.64311 141.87602,375.73579 8.1291863,380.31044 -74.842372,303.39022 -158.71153,225.63786 -163.3265,90.633897 -85.678585,6.8859117 -7.1978505,-77.760321 129.06422,-82.415642 213.58922,-4.039471 299.01312,75.170201 303.70882,212.69133 224.60383,297.99395 144.66467,384.19609 5.8835276,388.9322 -80.197286,309.09784 -167.17826,228.42864 -171.95481,88.386537 -91.390529,1.5269463 -9.990741,-86.23344 131.31326,-91.050449 218.95221,-9.7557004 307.49257,72.375215 312.35008,214.94205 230.32432,303.36092 147.46174,392.68184 3.6311428,397.57986 -85.568223,314.82255 -175.67025,231.22777 -180.60882,86.132502 -97.119424,-3.8479224 -12.791917,-94.731619 133.56894,-99.710765 224.33098,-15.488755 315.9969,69.572006 321.01665,217.19935 236.0615,308.74357 150.26696,401.19227 1.3722292,406.25265 -90.954715,320.56383 -184.18674,234.035 -189.28778,83.871986 -102.86478,-9.2382325 -15.601139,-103.25413 135.83104,-108.39585 229.72508,-21.238149 324.52539,66.760809 329.70782,219.46304 241.81491,314.14143 153.08012,409.72669 -0.89302774,414.94986 -96.356319,326.32122 -192.72706,236.85011 -197.99099,81.605171 -108.62613,-14.643549 -18.418179,-111.8003 138.09941,-117.10501 235.13408,-27.003427 333.07737,63.941848 338.4229,221.73294 247.58409,319.5541 155.90099,418.28444 -3.1644532,423.67081 -101.77262,332.09428 -201.29054,239.67287 -206.71777,79.332229 -114.40303,-20.063463 -21.242824,-120.36947 140.37385,-125.8376 240.55759,-32.784157 341.6522,61.115334 347.16124,224.00888 253.36862,324.98116 158.72936,426.86489 -5.4418821,432.41487 -107.20323,337.88258 -209.87657,242.50309 -215.46751,77.053324 -120.19508,-25.497586 -24.074872,-128.96104 142.65423,-134.59298 245.9952,-38.579934 350.24928,58.281465 355.92223,226.29071 259.16809,330.42225 161.56504,435.46744 -7.7251586,441.18144 -112.64777,343.68574 -218.48456,245.34056 -224.23962,74.768609 -126.00189,-30.945553 -26.914132,-137.57444 144.94037,-143.37059 251.44658,-44.390372 358.86805,55.44043 364.7053,228.57827 264.98214,335.87701 164.40784,444.09154 -10.014135,449.96994 -118.10589,349.50337 -227.11396,248.18511 -233.03352,72.47823 -131.82309,-36.407017 -29.760425,-146.20912 147.23214,-152.16985 256.91136,-50.215107 367.50796,52.592407 373.5099,230.87143 270.81039,341.3451 167.25758,452.73666 -12.308671,458.77984 -123.57726,355.33512 -235.76426,251.03656 -241.84868,70.182325 -137.65831,-41.881649 -32.613577,-154.86455 149.52941,-160.99026 262.38924,-56.053792 376.16851,49.737565 382.33551,233.17005 276.65251,346.8262 170.1141,461.40229 -14.608634,467.61062 -129.06156,361.18065 -244.43494,253.89476 -250.68461,67.881025 -143.50724,-47.369136 -35.473427,-163.54026 151.83204,-169.83129 267.87989,-61.906098 384.84921,46.876065 391.18163,235.474 282.50817,352.32 172.97724,470.08796 -16.913897,476.4618 -134.55849,367.03965 -253.12554,256.75953 -259.54081,65.574456 -149.36956,-52.86918 -38.33982,-172.23577 154.1399,-178.69249 273.38303,-67.771712 393.54959,44.00806 400.0478,237.78316 288.37707,357.82622 175.84685,478.7932 -19.22434,485.3329 -140.06777,372.91181 -261.83561,259.63073 -268.41683,63.262737 -155.24496,-58.381499 -41.212607,-180.95063 156.45289,-187.5734 278.89837,-73.650335 402.26923,41.133697 408.93356,240.09741 294.2589,363.34457 178.72278,487.51758 -21.539847,494.2235 -145.58911,378.79683 -270.56471,262.50822 -277.31224,60.94598 -161.13315,-63.905822 -44.091648,-189.68442 158.77089,-196.47358 284.42566,-79.541683 411.00769,38.253113 417.8385,242.41665 300.15339,368.8748 181.6049,496.26068 -23.86031,503.13316 -151.12227,384.69444 -279.31243,265.39186 -286.2266,58.624295 -167.03386,-69.441891 -46.976809,-198.43674 161.09379,-205.39262 289.96462,-85.445484 419.76458,35.366443 426.76219,244.74076 306.06026,374.41664 184.49307,505.02212 -26.185624,512.06149 -156.66698,390.60436 -288.07839,268.28153 -295.15953,56.297785 -172.94683,-74.989459 -49.86796,-207.2072 163.42149,-214.33013 295.51503,-91.361477 428.53951,32.473813 435.70426,247.06964 311.97926,379.96987 187.38717,513.8015 -28.515687,521.00809 -162.22302,396.52636 -296.8622,271.17709 -304.11064,53.966549 -178.87181,-80.54829 -52.76498,-215.99541 165.7539,-223.28573 301.07664,-97.289415 437.33211,29.575346 444.66432,249.4032 317.91015,385.53425 190.28708,522.59847 -30.850405,529.97259 -167.79015,402.46018 -305.66351,274.07843 -313.07956,51.630682 -184.80854,-86.118158 -55.667749,-224.80104 168.09091,-232.25905 306.64923,-103.22906 446.14204,26.671156 453.64202,251.74135 323.85268,391.10956 193.19268,531.41267 -33.189685,538.95465 -173.36815,408.40559 -314.48197,276.98544 -322.06595,49.290276 -190.75682,-91.698846 -58.576156,-233.62374 170.43243,-241.24976 312.23259,-109.18018 454.96895,23.761358 462.63702,254.084 329.80663,396.69557 196.10387,540.24378 -35.533439,547.95391 -178.95682,414.36236 -323.31725,279.898 -331.06947,46.945417 -196.7164,-97.290146 -61.490091,-242.46317 172.77839,-250.2575 317.82652,-115.14255 463.81252,20.846056 471.64898,256.43105 335.77179,402.29211 199.02053,549.09146 -37.881582,556.97006 -184.55595,420.33029 -332.16903,282.81602 -340.08979,44.596189 -202.68708,-102.89186 -64.409451,-251.31904 175.1287,-259.28198 323.4308,-121.11597 472.67244,17.925356 480.67758,258.78243 341.74794,407.89895 201.94256,557.95542 -40.234033,566.00278 -190.16534,426.30916 -341.03701,285.73938 -349.12661,42.242673 -208.66865,-108.50379 -67.334136,-260.19102 177.48328,-268.32287 329.04526,-127.10024 481.54841,14.999355 489.72253,261.13806 347.73489,413.51592 204.86987,566.83536 -42.590713,575.05177 -195.78482,432.29877 -349.9209,288.668 -358.17962,39.884948 -214.66092,-114.12576 -70.264049,-269.07884 179.84204,-277.37989 334.66971,-133.09515 490.44014,12.06815 498.78353,263.49786 353.73243,419.14284 207.80236,575.73099 -44.951548,584.11674 -201.4142,438.29894 -358.82041,291.60177 -367.24854,37.523086 -220.6637,-119.75759 -73.199098,-277.98221 182.20493,-286.45274 340.30397,-139.10053 499.34736,9.1318312 507.8603,265.86177 359.74039,424.77953 210.73995,584.64203 -47.316464,593.19741 -207.0533,444.30947 -367.73526,294.54061 -376.33309,35.157161 -226.6768,-125.3991 -76.139193,-286.90086 184.57186,-295.54115 345.94788,-145.11618 508.26979,6.1904882 516.95256,268.2297 365.75859,430.42583 213.68253,593.56823 -49.685391,602.2935 -212.70197,450.3302 -376.6652,297.48443 -385.433,32.787242 -232.70005,-131.05013 -79.084248,-295.83453 186.94276,-304.64486 351.60127,-151.14194 517.20718,3.244206 526.06006,270.60159 371.78685,436.08156 216.63004,602.50932 -52.058262,611.40477 -218.36004,456.36095 -385.60998,300.43315 -394.54801,30.413395 -238.73327,-136.71052 -82.03418,-304.78298 189.31758,-313.76362 357.26398,-157.17764 526.15928,0.29306698 535.18253,272.97737 377.825,441.74657 219.58238,611.46505 -54.435012,620.53095 -224.02735,462.40155 -394.56934,303.38669 -403.67789,28.035686 -244.77631,-142.38012 -84.98891,-313.74595 191.69625,-322.89716 362.93585,-163.2231 535.12584,-2.6628493 544.31974,275.35699 383.87289,447.42072 222.53948,620.4352 -56.815577,629.6718 -229.70376,468.45185 -403.54305,306.34497 -412.82237,25.654176 -250.82901,-148.05878 -87.948358,-322.72321 194.0787,-332.04527 368.61676,-169.27819 544.10665,-5.6234661 553.47145,277.74038 389.93035,453.10386 225.50126,629.41953 -59.199897,638.8271 -235.38912,474.51168 -412.53089,309.30791 -421.98124,23.268926 -256.8912,-153.74636 -90.912452,-331.71455 196.46487,-341.2077 374.30654,-175.34274 553.10146,-8.5887091 562.63743,280.12748 395.99725,458.79584 228.46764,638.41781 -61.587913,647.99661 -241.08329,480.58091 -421.53263,312.27544 -431.15427,20.879995 -262.96275,-159.44271 -93.881117,-340.71973 198.85472,-350.38423 380.00506,-181.4166 562.11007,-11.558506 571.81746,282.51823 402.07342,464.49652 231.43857,647.42984 -63.979568,657.18011 -246.78613,486.65938 -430.54806,315.24748 -440.34124,18.487439 -269.04352,-165.1477 -96.854284,-349.73855 201.24817,-359.57466 385.71219,-187.49965 571.13227,-14.532789 581.01132,284.91257 408.15873,470.20579 234.41396,656.4554 -66.374807,666.3774 -252.49752,492.74696 -439.57697,318.22398 -449.54194,16.091313 -275.13335,-170.8612 -99.831886,-358.7708 203.64518,-368.77875 391.4278,-193.59172 580.16784,-17.511488 590.2188,287.31046 414.25305,475.92349 237.39375,665.49429 -68.773576,675.58826 -258.21732,498.8435 -448.61916,321.20487 -458.75617,13.69167 -281.23212,-176.58309 -102.81386,-367.81628 206.04569,-377.99633 397.15176,-199.69271 589.2166,-20.49454 599.43972,289.71185 420.35624,481.64953 240.37788,674.54631 -71.175824,684.8125 -263.94541,504.94889 -457.67444,324.19007 -467.98372,11.28856 -287.33969,-182.31323 -105.80013,-376.8748 208.44966,-387.22718 402.88396,-205.80246 598.27835,-23.48188 608.67386,292.11667 426.46817,487.38376 243.36629,683.61128 -73.5815,694.04992 -269.68168,511.06299 -466.74261,327.17953 -477.22441,8.8820344 -293.45595,-188.05152 -108.79065,-385.94617 210.85703,-396.47113 408.62427,-211.92087 607.35291,-26.473448 617.92105,294.52489 432.58872,493.12608 246.3589,692.68901 -75.990556,703.30034 -275.426,517.18567 -475.82351,330.17319 -486.47805,6.472141 -299.58076,-193.79784 -111.78535,-395.03021 213.26776,-405.72798 414.37257,-218.0478 616.44009,-29.469184 627.18109,296.93645 438.71776,498.87637 249.35567,701.77932 -78.402944,712.56358 -281.17827,523.31682 -484.91694,333.17099 -495.74446,4.0589269 -305.71401,-199.55208 -114.78417,-404.12675 215.6818,-414.99755 420.12877,-224.18314 625.53972,-32.46903 636.45382,299.3513 444.85519,504.63452 252.35654,710.88204 -80.818619,721.83945 -286.93837,529.45632 -494.02273,336.17287 -505.02346,1.6424375 -311.85558,-205.31412 -117.78706,-413.23561 218.0991,-424.27967 425.89275,-230.32677 634.65164,-35.47293 645.73905,301.76941 451.00088,510.40043 255.36144,719.997 -83.237535,731.12778 -292.7062,535.60406 -503.14072,339.17878 -514.31488,-0.7772828 -318.00536,-211.08387 -120.79397,-422.35662 220.51962,-433.57418 431.6644,-236.47859 643.77567,-38.480829 655.03663,304.19073 457.15472,516.17399 258.37033,729.12403 -85.65965,740.42841 -298.48165,541.75993 -512.27075,342.18865 -523.61857,-3.200191 -324.16324,-216.86121 -123.80483,-431.48964 222.94332,-442.8809 437.44363,-242.63848 652.91165,-41.492675 664.34638,306.61522 463.31661,521.9551 261.38316,738.26298 -88.084922,749.74118 -304.26463,547.92381 -521.41266,345.20245 -532.93435,-5.6262453 -330.32911,-222.64606 c 203.50951,-217.98843 555.69927,-229.55362 773.55945,-26.16028 218.8291,204.297925 230.43781,557.84917 26.2561,776.54999 -205.08658,219.67004 -559.999749,231.32228 -779.54148,26.35196 -220.51124,-205.87549 -232.20702,-562.1510148 -26.44784,-782.53391 206.66465,-221.35272 564.30296,-233.09206 785.5273,-26.54376 222.19445,207.45406 233.97736,566.45559 26.63969,788.52163 -208.24371,223.03645 -568.608882,234.86294 -791.51688,26.73566 -223.87871,-209.03362 -235.7488,-570.76286 -26.83166,-794.51309 209.82377,-224.72123 572.9175,-236.63493 797.51022,-26.92768 225.56401,210.61416 237.52133,575.07281 27.02374,800.50828 -211.40481,226.40706 -577.228801,238.40801 -803.50728,27.11982 -227.25036,-212.19569 -239.29496,-579.385442 -27.21593,-806.50719 212.98682,-228.09392 581.54275,-240.18219 809.50803,-27.31207 228.93774,213.778192 241.06968,583.70072 27.40823,812.50979 -214.5698,229.78181 -585.859349,241.95744 -815.51246,27.50442 -230.62614,-215.36165 -242.84547,-588.018634 -27.60064,-818.51604 216.15375,-231.47074 590.17858,-243.73378 821.52054,-27.69689 232.31557,216.946082 244.62234,592.33917 27.79317,824.52594 -217.73866,233.16067 -594.50042,245.51118 -827.53225,27.88947 -234.00602,-218.53147 -246.40028,-596.662309 -27.98581,-830.53946 219.32452,-234.85162 598.82485,-247.28965 833.54757,-28.08216 235.69748,220.117805 248.17928,600.98804 28.17855,836.55657 -220.91133,236.54358 -603.15186,249.06917 -839.56647,28.27496 -237.38993,-221.70508 -249.95933,-605.316331 -28.3714,-842.57726 222.49907,-238.23653 607.48144,-250.84975 845.58894,-28.46787 239.08338,223.293306 251.74042,609.64719 28.56436,848.60151 -224.08776,239.93048 -611.81357,252.63136 -851.61496,28.66088 -240.77782,-224.88245 -253.52256,-613.980585 -28.75743,-854.62929 115.67028,-123.84439 281.567812,-194.54506 451.00244,-192.33836" />
    <g
       sodipodi:type="inkscape:box3d"
       id="g3733"
       style="fill:#dde9af"
       inkscape:perspectiveID="#perspective3731"
       inkscape:corner0="0.17308929 : -0.013581748 : -0.21341531 : 1"
       inkscape:corner7="0.55537403 : -0.048001995 : 0.063885118 : 1">
      <path
         sodipodi:type="inkscape:box3dside"
         id="path3735"
         style="fill:#353564;fill-rule:evenodd;stroke:none;stroke-linejoin:round"
         inkscape:box3dsidetype="6"
         d="m 62.7117,214.23248 v 35.8666 l 33.018557,-22.77611 v -27.82616 z"
         points="62.7117,250.09908 95.730257,227.32297 95.730257,199.49681 62.7117,214.23248 " />
      <path
         sodipodi:type="inkscape:box3dside"
         id="path3743"
         style="fill:#afafde;fill-rule:evenodd;stroke:none;stroke-linejoin:round"
         inkscape:box3dsidetype="13"
         d="m 62.7117,250.09908 -17.864727,-28.9426 28.282691,-12.44252 22.600593,18.60901 z"
         points="44.846973,221.15648 73.129664,208.71396 95.730257,227.32297 62.7117,250.09908 " />
      <path
         sodipodi:type="inkscape:box3dside"
         id="path3741"
         style="fill:#d7d7ff;fill-rule:evenodd;stroke:none;stroke-linejoin:round"
         inkscape:box3dsidetype="14"
         d="m 44.846973,195.50722 v 25.64926 l 28.282691,-12.44252 v -21.25679 z"
         points="44.846973,221.15648 73.129664,208.71396 73.129664,187.45717 44.846973,195.50722 " />
      <path
         sodipodi:type="inkscape:box3dside"
         id="path3745"
         style="fill:#e9e9ff;fill-rule:evenodd;stroke:none;stroke-linejoin:round"
         inkscape:box3dsidetype="11"
         d="M 95.730257,199.49681 73.129664,187.45717 v 21.25679 l 22.600593,18.60901 z"
         points="73.129664,187.45717 73.129664,208.71396 95.730257,227.32297 95.730257,199.49681 " />
      <path
         sodipodi:type="inkscape:box3dside"
         id="path3737"
         style="fill:#4d4d9f;fill-rule:evenodd;stroke:none;stroke-linejoin:round"
         inkscape:box3dsidetype="5"
         d="m 62.7117,214.23248 -17.864727,-18.72526 28.282691,-8.05005 22.600593,12.03964 z"
         points="44.846973,195.50722 73.129664,187.45717 95.730257,199.49681 62.7117,214.23248 " />
      <path
         sodipodi:type="inkscape:box3dside"
         id="path3739"
         style="fill:#8686bf;fill-rule:evenodd;stroke:none;stroke-linejoin:round"
         inkscape:box3dsidetype="3"
         d="M 62.7117,214.23248 44.846973,195.50722 v 25.64926 l 17.864727,28.9426 z"
         points="44.846973,195.50722 44.846973,221.15648 62.7117,250.09908 62.7117,214.23248 " />
    </g>
    <text
       xml:space="preserve"
       style="font-style:normal;font-weight:normal;font-size:10.58333302px;line-height:1.25;font-family:sans-serif;letter-spacing:0px;word-spacing:0px;fill:url(#linearGradient3757);fill-opacity:1;stroke:none;stroke-width:0.26458332"
       x="53.672619"
       y="111.79166"
       id="text3749"><tspan
         sodipodi:role="line"
         id="tspan3747"
         x="53.672619"
         y="111.79166"
         style="stroke-width:0.26458332;-inkscape-font-specification:'Akzidenz-Grotesk BQ Condensed, ';font-family:'Akzidenz-Grotesk BQ Condensed';font-weight:normal;font-style:normal;font-stretch:normal;font-variant:normal;font-size:25.4px;fill-opacity:1;fill:url(#linearGradient3757)">BOI</tspan></text>
  </g>
</svg>
